<svg preserveAspectRatio="none" width="100%" height="100%" overflow="visible" style="display: block;" viewBox="0 0 29.5429 30.6646" fill="none" xmlns="http://www.w3.org/2000/svg">
<g id="Group">
<g id="Group_2" filter="url(#filter0_d_0_65)">
<path id="Vector" d="M22.4055 6.82739C21.017 4.99861 19.1175 3.69797 16.9111 3.06582L16.8293 3.04259H16.7445C16.7223 3.04259 16.6849 3.03856 16.6455 3.03452C16.5849 3.02846 16.5092 3.02139 16.4264 3.02139C15.6418 3.02139 14.9399 3.55053 14.7188 4.30689L14.7168 4.31497C14.4593 5.24905 14.9914 6.20837 15.9285 6.4992L15.9437 6.50324C18.9176 7.34442 20.9948 10.0962 20.9948 13.1943C20.9948 17.0235 17.8795 20.1378 14.0513 20.1378C12.1831 20.1378 10.4311 19.4037 9.11429 18.0677C8.78105 17.7344 8.33471 17.5507 7.85707 17.5507C7.38245 17.5507 6.93914 17.7324 6.6059 18.0626C6.26155 18.3928 6.07272 18.8372 6.07272 19.3138C6.07272 19.7894 6.26155 20.2327 6.60388 20.5629C8.58414 22.5634 11.2288 23.6651 14.0513 23.6651C19.8365 23.6651 24.5433 18.9583 24.5433 13.1731C24.5433 10.8626 23.8051 8.66728 22.4075 6.82739H22.4055Z" fill="url(#paint0_linear_0_65)"/>
<path id="Vector_2" d="M8.26109 9.40706C9.20931 7.96706 10.6291 6.92897 12.26 6.48263C12.7124 6.35741 13.0921 6.06658 13.3304 5.66164C13.5727 5.24863 13.6374 4.77099 13.5111 4.31455L13.5041 4.29132C13.2567 3.51881 12.5639 2.99976 11.7803 2.99976C11.644 2.99976 11.4996 3.01996 11.336 3.06035L11.3249 3.06338C8.83871 3.73491 6.69587 5.30114 5.29222 7.47225C5.02765 7.86406 4.93879 8.33766 5.04078 8.80622C5.13974 9.26165 5.40835 9.6575 5.80117 9.92409C6.08493 10.1129 6.43029 10.2169 6.77464 10.2169C7.37649 10.2169 7.94603 9.90692 8.26109 9.40807V9.40706Z" fill="url(#paint1_linear_0_65)"/>
</g>
<path id="Vector_3" d="M3.57857 14.2029C3.43619 12.5054 2.2133 11.4764 0.848025 11.4723C2.76062 11.0896 3.21605 10.824 3.57857 8.74178C3.77448 10.6574 4.48034 11.3835 6.30912 11.4723C4.41167 11.648 3.66239 12.6669 3.57857 14.2029Z" fill="var(--fill-0, #0166D1)"/>
<path id="Vector_4" d="M4.99947 5.38717C4.90253 4.22992 4.06943 3.52809 3.13838 3.52607C4.44205 3.26554 4.75207 3.08478 4.99947 1.66498C5.13277 2.97067 5.61344 3.46548 6.86057 3.52607C5.56699 3.64523 5.05602 4.33999 4.99947 5.38717Z" fill="var(--fill-0, #FFD602)"/>
<path id="Vector_5" d="M1.80232 8.06898C1.72659 7.16216 1.07323 6.61181 0.343136 6.60979C1.36507 6.40581 1.60844 6.26342 1.80232 5.1506C1.90734 6.17456 2.28401 6.56233 3.26151 6.60979C2.24765 6.7037 1.84676 7.248 1.80232 8.06898Z" fill="var(--fill-0, #F6AC00)"/>
</g>
<defs>
<filter id="filter0_d_0_65" x="0" y="0" width="29.5429" height="30.6645" filterUnits="userSpaceOnUse" color-interpolation-filters="sRGB">
<feFlood flood-opacity="0" result="BackgroundImageFix"/>
<feColorMatrix in="SourceAlpha" type="matrix" values="0 0 0 0 0 0 0 0 0 0 0 0 0 0 0 0 0 0 127 0" result="hardAlpha"/>
<feOffset dy="1.99984"/>
<feGaussianBlur stdDeviation="2.4998"/>
<feComposite in2="hardAlpha" operator="out"/>
<feColorMatrix type="matrix" values="0 0 0 0 0 0 0 0 0 0 0 0 0 0 0 0 0 0 0.1 0"/>
<feBlend mode="normal" in2="BackgroundImageFix" result="effect1_dropShadow_0_65"/>
<feBlend mode="normal" in="SourceGraphic" in2="effect1_dropShadow_0_65" result="shape"/>
</filter>
<linearGradient id="paint0_linear_0_65" x1="24.5433" y1="13.3432" x2="6.00258" y2="13.5498" gradientUnits="userSpaceOnUse">
<stop stop-color="#0063CF"/>
<stop offset="1" stop-color="#0097E7"/>
</linearGradient>
<linearGradient id="paint1_linear_0_65" x1="13.5742" y1="6.60835" x2="4.96786" y2="6.73565" gradientUnits="userSpaceOnUse">
<stop stop-color="#0063CF"/>
<stop offset="1" stop-color="#0097E7"/>
</linearGradient>
</defs>
</svg>
