<svg preserveAspectRatio="none" width="100%" height="100%" overflow="visible" style="display: block;" viewBox="0 0 22.3509 20.3164" fill="none" xmlns="http://www.w3.org/2000/svg">
<g id="Group">
<g id="Group_2">
<path id="Vector" d="M20.3764 4.76523C19.094 3.0762 17.3397 1.87494 15.3019 1.29111L15.2263 1.26965H15.148C15.1275 1.26965 15.093 1.26592 15.0566 1.26219C15.0006 1.2566 14.9307 1.25007 14.8542 1.25007C14.1295 1.25007 13.4814 1.73878 13.2771 2.43733L13.2752 2.44479C13.0374 3.3075 13.5289 4.19351 14.3944 4.46212L14.4084 4.46585C17.1551 5.24275 19.0735 7.78422 19.0735 10.6456C19.0735 14.1822 16.1963 17.0585 12.6606 17.0585C10.9352 17.0585 9.31707 16.3805 8.10089 15.1466C7.79312 14.8388 7.38089 14.669 6.93974 14.669C6.5014 14.669 6.09197 14.8369 5.78419 15.1419C5.46616 15.4469 5.29175 15.8572 5.29175 16.2975C5.29175 16.7367 5.46616 17.1462 5.78232 17.4511C7.61125 19.2987 10.0539 20.3162 12.6606 20.3162C18.0038 20.3162 22.3509 15.9692 22.3509 10.626C22.3509 8.4921 21.6691 6.46452 20.3783 4.76523H20.3764Z" fill="var(--fill-0, white)"/>
<path id="Vector_2" d="M7.31287 7.14903C8.18862 5.81907 9.49993 4.8603 11.0062 4.44807C11.424 4.33242 11.7747 4.06382 11.9948 3.68983C12.2186 3.30837 12.2783 2.86723 12.1617 2.44567L12.1552 2.42422C11.9267 1.71074 11.2869 1.23136 10.5632 1.23136C10.4372 1.23136 10.3039 1.25001 10.1528 1.28732L10.1425 1.29012C7.84634 1.91033 5.86726 3.35687 4.57087 5.36207C4.32652 5.72394 4.24444 6.16135 4.33864 6.5941C4.43004 7.01473 4.67813 7.38033 5.04093 7.62655C5.303 7.80095 5.62197 7.89701 5.94 7.89701C6.49586 7.89701 7.02188 7.61069 7.31287 7.14996V7.14903Z" fill="var(--fill-0, white)"/>
</g>
<path id="Vector_3" d="M2.9882 11.5794C2.85669 10.0116 1.72725 9.06125 0.466309 9.05752C2.23275 8.70405 2.65337 8.45876 2.9882 6.53564C3.16913 8.30487 3.82105 8.97545 5.51008 9.05752C3.75763 9.2198 3.06561 10.1608 2.9882 11.5794Z" fill="var(--fill-0, white)"/>
<path id="Vector_4" d="M4.30046 3.43775C4.21092 2.36893 3.44149 1.72074 2.58158 1.71888C3.78563 1.47825 4.07196 1.31131 4.30046 0C4.42357 1.20592 4.86751 1.66292 6.01933 1.71888C4.82461 1.82893 4.35269 2.47059 4.30046 3.43775Z" fill="var(--fill-0, white)"/>
<path id="Vector_5" d="M1.34768 5.91641C1.27773 5.07889 0.674306 4.57059 0 4.56873C0.943842 4.38033 1.16861 4.24883 1.34768 3.22105C1.44468 4.16675 1.79255 4.52489 2.69536 4.56873C1.75898 4.65546 1.38872 5.15816 1.34768 5.91641Z" fill="var(--fill-0, #F6AC00)"/>
</g>
</svg>
