<svg preserveAspectRatio="none" width="100%" height="100%" overflow="visible" style="display: block;" viewBox="0 0 55.2138 57.3099" fill="none" xmlns="http://www.w3.org/2000/svg">
<g id="Group">
<g id="Group_2" filter="url(#filter0_d_0_215)">
<path id="Vector" d="M41.8745 12.7598C39.2795 9.34192 35.7295 6.9111 31.6058 5.72966L31.4529 5.68626H31.2944C31.2529 5.68626 31.1831 5.67871 31.1095 5.67116C30.9962 5.65983 30.8547 5.64662 30.6999 5.64662C29.2335 5.64662 27.9218 6.63556 27.5085 8.04913L27.5047 8.06423C27.0235 9.80997 28.0181 11.6029 29.7695 12.1464L29.7978 12.154C35.3558 13.7261 39.238 18.8689 39.238 24.6591C39.238 31.8157 33.4157 37.6361 26.261 37.6361C22.7696 37.6361 19.4951 36.264 17.0341 33.7671C16.4113 33.1443 15.5771 32.8009 14.6844 32.8009C13.7974 32.8009 12.9689 33.1406 12.3461 33.7577C11.7025 34.3749 11.3496 35.2053 11.3496 36.0961C11.3496 36.985 11.7025 37.8135 12.3423 38.4306C16.0433 42.1693 20.9861 44.2284 26.261 44.2284C37.0733 44.2284 45.8699 35.4317 45.8699 24.6195C45.8699 20.3014 44.4903 16.1984 41.8783 12.7598H41.8745Z" fill="url(#paint0_linear_0_215)"/>
<path id="Vector_2" d="M15.4394 17.5812C17.2116 14.8899 19.8651 12.9498 22.9131 12.1156C23.7586 11.8816 24.4682 11.338 24.9136 10.5812C25.3665 9.80934 25.4873 8.91666 25.2514 8.06361L25.2382 8.0202C24.7758 6.57643 23.4811 5.60636 22.0166 5.60636C21.7618 5.60636 21.492 5.64411 21.1862 5.7196L21.1655 5.72526C16.519 6.9803 12.5141 9.90748 9.89082 13.9651C9.39635 14.6974 9.23027 15.5825 9.42088 16.4582C9.60584 17.3094 10.1079 18.0492 10.842 18.5475C11.3723 18.9004 12.0178 19.0948 12.6613 19.0948C13.7862 19.0948 14.8506 18.5154 15.4394 17.5831V17.5812Z" fill="url(#paint1_linear_0_215)"/>
</g>
<path id="Vector_3" d="M6.68816 26.5442C6.42205 23.3717 4.13655 21.4486 1.58495 21.441C5.15946 20.7257 6.01062 20.2294 6.68816 16.3378C7.05429 19.918 8.3735 21.2749 11.7914 21.441C8.24517 21.7694 6.8448 23.6737 6.68816 26.5442Z" fill="var(--fill-0, #0166D1)"/>
<path id="Vector_4" d="M9.34367 10.0683C9.16249 7.90552 7.60548 6.59386 5.8654 6.59008C8.30189 6.10316 8.88128 5.76534 9.34367 3.11182C9.59279 5.55208 10.4911 6.47684 12.8219 6.59008C10.4043 6.81278 9.44935 8.11123 9.34367 10.0683Z" fill="var(--fill-0, #FFD602)"/>
<path id="Vector_5" d="M3.36843 15.0804C3.22689 13.3856 2.00582 12.3571 0.64131 12.3533C2.55124 11.9721 3.00608 11.706 3.36843 9.62617C3.56471 11.5399 4.26867 12.2646 6.09556 12.3533C4.20073 12.5288 3.45147 13.5461 3.36843 15.0804Z" fill="var(--fill-0, #F6AC00)"/>
</g>
<defs>
<filter id="filter0_d_0_215" x="0" y="0" width="55.2138" height="57.3099" filterUnits="userSpaceOnUse" color-interpolation-filters="sRGB">
<feFlood flood-opacity="0" result="BackgroundImageFix"/>
<feColorMatrix in="SourceAlpha" type="matrix" values="0 0 0 0 0 0 0 0 0 0 0 0 0 0 0 0 0 0 127 0" result="hardAlpha"/>
<feOffset dy="3.73757"/>
<feGaussianBlur stdDeviation="4.67197"/>
<feComposite in2="hardAlpha" operator="out"/>
<feColorMatrix type="matrix" values="0 0 0 0 0 0 0 0 0 0 0 0 0 0 0 0 0 0 0.1 0"/>
<feBlend mode="normal" in2="BackgroundImageFix" result="effect1_dropShadow_0_215"/>
<feBlend mode="normal" in="SourceGraphic" in2="effect1_dropShadow_0_215" result="shape"/>
</filter>
<linearGradient id="paint0_linear_0_215" x1="45.8699" y1="24.9375" x2="11.2185" y2="25.3235" gradientUnits="userSpaceOnUse">
<stop stop-color="#0063CF"/>
<stop offset="1" stop-color="#0097E7"/>
</linearGradient>
<linearGradient id="paint1_linear_0_215" x1="25.3693" y1="12.3506" x2="9.28461" y2="12.5885" gradientUnits="userSpaceOnUse">
<stop stop-color="#0063CF"/>
<stop offset="1" stop-color="#0097E7"/>
</linearGradient>
</defs>
</svg>
