<svg preserveAspectRatio="none" width="100%" height="100%" overflow="visible" style="display: block;" viewBox="0 0 8.12084 7.57577" fill="none" xmlns="http://www.w3.org/2000/svg">
<g id="Group">
<path id="Vector" d="M0.317312 5.62646C0.609841 5.66609 0.974088 5.61136 1.18546 5.76423C2.18195 6.48329 3.24638 7.06079 4.48821 6.81545C5.31861 6.65125 6.09429 6.2134 6.89072 5.8869C7.00585 5.83972 7.09077 5.6944 7.20401 5.67553C7.43237 5.63967 7.67017 5.65854 7.9023 5.65477C7.8136 5.85671 7.77774 6.11715 7.62676 6.25492C6.17166 7.57791 4.42215 7.82137 2.60847 7.36276C1.71579 7.13817 0.815556 6.70221 0.315426 5.62457L0.317312 5.62646Z" fill="var(--fill-0, #0164CF)"/>
<path id="Vector_2" d="M0.275675 0C0.702201 0.330275 0.919239 1.57399 0.62671 1.92125C0.428545 2.15528 0.153 2.16094 0.103931 1.84576C0.00956688 1.23428 -0.135753 0.588831 0.275675 0.00188625V0Z" fill="var(--fill-0, #0164CF)"/>
<path id="Vector_3" d="M7.72289 0.0926021C8.09846 0.35116 8.27586 1.6364 7.95125 1.93837C7.87953 2.00631 7.62098 1.99499 7.55115 1.92327C7.3209 1.67981 7.46244 0.405891 7.721 0.0926021H7.72289Z" fill="var(--fill-0, #0164CF)"/>
</g>
</svg>
