<svg preserveAspectRatio="none" width="100%" height="100%" overflow="visible" style="display: block;" viewBox="0 0 15.7014 14.3521" fill="none" xmlns="http://www.w3.org/2000/svg">
<path id="Icon" d="M6.86524 7.17669H2.74024M2.67674 7.39532L0.925555 12.6263C0.78798 13.0373 0.719192 13.2428 0.768558 13.3693C0.811427 13.4792 0.903499 13.5625 1.01711 13.5942C1.14794 13.6307 1.34554 13.5418 1.74074 13.364L14.2743 7.72385C14.6601 7.55026 14.853 7.46347 14.9126 7.3429C14.9644 7.23815 14.9644 7.11524 14.9126 7.01049C14.853 6.88992 14.6601 6.80313 14.2743 6.62954L1.73637 0.987486C1.34236 0.810183 1.14536 0.721532 1.01466 0.757898C0.901154 0.78948 0.809091 0.87257 0.766073 0.982252C0.71654 1.10855 0.784592 1.31358 0.920698 1.72365L2.67723 7.01584C2.70061 7.08627 2.7123 7.12148 2.71691 7.1575C2.72101 7.18946 2.72096 7.22181 2.71679 7.25376C2.71208 7.28977 2.7003 7.32495 2.67674 7.39532Z" stroke="var(--stroke-0, white)" stroke-width="1.5" stroke-linecap="round" stroke-linejoin="round"/>
</svg>
